<?xml version="1.0" encoding="UTF-8"?>
<svg xmlns="http://www.w3.org/2000/svg" xmlns:xlink="http://www.w3.org/1999/xlink" width="2160" height="2160" viewBox="0 0 2160 2160">
<defs>
<g>
<g id="glyph-0-0">
<path d="M 26.40625 -18.078125 C 26.40625 -14.203125 26 -10.875 25.1875 -8.09375 C 24.382812 -5.320312 23.109375 -3.195312 21.359375 -1.71875 C 19.609375 -0.238281 17.285156 0.5 14.390625 0.5 C 10.316406 0.5 7.3125 -1.140625 5.375 -4.421875 C 3.4375 -7.703125 2.46875 -12.253906 2.46875 -18.078125 C 2.46875 -21.984375 2.863281 -25.316406 3.65625 -28.078125 C 4.445312 -30.835938 5.71875 -32.945312 7.46875 -34.40625 C 9.21875 -35.875 11.523438 -36.609375 14.390625 -36.609375 C 18.429688 -36.609375 21.441406 -34.984375 23.421875 -31.734375 C 25.410156 -28.484375 26.40625 -23.929688 26.40625 -18.078125 Z M 6.921875 -18.078125 C 6.921875 -13.128906 7.484375 -9.425781 8.609375 -6.96875 C 9.734375 -4.507812 11.660156 -3.28125 14.390625 -3.28125 C 17.085938 -3.28125 19.015625 -4.5 20.171875 -6.9375 C 21.335938 -9.382812 21.921875 -13.097656 21.921875 -18.078125 C 21.921875 -22.992188 21.335938 -26.679688 20.171875 -29.140625 C 19.015625 -31.597656 17.085938 -32.828125 14.390625 -32.828125 C 11.660156 -32.828125 9.734375 -31.597656 8.609375 -29.140625 C 7.484375 -26.679688 6.921875 -22.992188 6.921875 -18.078125 Z M 6.921875 -18.078125 "/>
</g>
<g id="glyph-0-1">
<path d="M 26.265625 0 L 2.421875 0 L 2.421875 -3.6875 L 11.875 -13.234375 C 13.6875 -15.046875 15.210938 -16.660156 16.453125 -18.078125 C 17.703125 -19.492188 18.644531 -20.882812 19.28125 -22.25 C 19.925781 -23.613281 20.25 -25.101562 20.25 -26.71875 C 20.25 -28.695312 19.660156 -30.203125 18.484375 -31.234375 C 17.304688 -32.265625 15.773438 -32.78125 13.890625 -32.78125 C 12.140625 -32.78125 10.597656 -32.472656 9.265625 -31.859375 C 7.929688 -31.253906 6.578125 -30.414062 5.203125 -29.34375 L 2.828125 -32.3125 C 4.242188 -33.5 5.867188 -34.503906 7.703125 -35.328125 C 9.535156 -36.148438 11.597656 -36.5625 13.890625 -36.5625 C 17.253906 -36.5625 19.910156 -35.710938 21.859375 -34.015625 C 23.816406 -32.316406 24.796875 -29.96875 24.796875 -26.96875 C 24.796875 -25.082031 24.40625 -23.3125 23.625 -21.65625 C 22.851562 -20.007812 21.773438 -18.382812 20.390625 -16.78125 C 19.015625 -15.1875 17.398438 -13.484375 15.546875 -11.671875 L 8.03125 -4.234375 L 8.03125 -4.046875 L 26.265625 -4.046875 Z M 26.265625 0 "/>
</g>
<g id="glyph-0-2">
<path d="M 13.890625 -22.125 C 17.585938 -22.125 20.53125 -21.195312 22.71875 -19.34375 C 24.90625 -17.488281 26 -14.878906 26 -11.515625 C 26 -7.773438 24.8125 -4.835938 22.4375 -2.703125 C 20.070312 -0.566406 16.769531 0.5 12.53125 0.5 C 10.675781 0.5 8.929688 0.332031 7.296875 0 C 5.660156 -0.332031 4.289062 -0.820312 3.1875 -1.46875 L 3.1875 -5.65625 C 4.394531 -4.914062 5.863281 -4.332031 7.59375 -3.90625 C 9.332031 -3.488281 10.992188 -3.28125 12.578125 -3.28125 C 15.234375 -3.28125 17.378906 -3.910156 19.015625 -5.171875 C 20.648438 -6.429688 21.46875 -8.394531 21.46875 -11.0625 C 21.46875 -13.414062 20.742188 -15.222656 19.296875 -16.484375 C 17.847656 -17.742188 15.554688 -18.375 12.421875 -18.375 C 11.484375 -18.375 10.40625 -18.289062 9.1875 -18.125 C 7.976562 -17.957031 7.003906 -17.789062 6.265625 -17.625 L 4.046875 -19.03125 L 5.40625 -36.0625 L 23.484375 -36.0625 L 23.484375 -32.015625 L 9.1875 -32.015625 L 8.328125 -21.5625 C 8.898438 -21.664062 9.675781 -21.785156 10.65625 -21.921875 C 11.632812 -22.054688 12.710938 -22.125 13.890625 -22.125 Z M 13.890625 -22.125 "/>
</g>
<g id="glyph-0-3">
<path d="M 6.875 0 L 21.671875 -32.015625 L 2.21875 -32.015625 L 2.21875 -36.0625 L 26.40625 -36.0625 L 26.40625 -32.625 L 11.765625 0 Z M 6.875 0 "/>
</g>
<g id="glyph-0-4">
<path d="M 17.921875 0 L 13.578125 0 L 13.578125 -25.203125 C 13.578125 -26.648438 13.59375 -27.8125 13.625 -28.6875 C 13.664062 -29.5625 13.71875 -30.46875 13.78125 -31.40625 C 13.25 -30.875 12.765625 -30.421875 12.328125 -30.046875 C 11.890625 -29.671875 11.332031 -29.203125 10.65625 -28.640625 L 6.8125 -25.5 L 4.5 -28.484375 L 14.234375 -36.0625 L 17.921875 -36.0625 Z M 17.921875 0 "/>
</g>
<g id="glyph-1-0">
<path d="M 15.15625 0.5 C 11.039062 0.5 7.863281 -0.632812 5.625 -2.90625 C 3.382812 -5.175781 2.265625 -8.753906 2.265625 -13.640625 C 2.265625 -17.003906 2.835938 -19.742188 3.984375 -21.859375 C 5.128906 -23.984375 6.71875 -25.550781 8.75 -26.5625 C 10.789062 -27.570312 13.144531 -28.078125 15.8125 -28.078125 C 17.695312 -28.078125 19.335938 -27.890625 20.734375 -27.515625 C 22.128906 -27.148438 23.347656 -26.710938 24.390625 -26.203125 L 22.171875 -20.40625 C 20.992188 -20.875 19.890625 -21.257812 18.859375 -21.5625 C 17.835938 -21.863281 16.820312 -22.015625 15.8125 -22.015625 C 11.90625 -22.015625 9.953125 -19.238281 9.953125 -13.6875 C 9.953125 -10.925781 10.460938 -8.890625 11.484375 -7.578125 C 12.515625 -6.265625 13.957031 -5.609375 15.8125 -5.609375 C 17.394531 -5.609375 18.789062 -5.816406 20 -6.234375 C 21.207031 -6.660156 22.382812 -7.242188 23.53125 -7.984375 L 23.53125 -1.5625 C 22.382812 -0.820312 21.179688 -0.296875 19.921875 0.015625 C 18.660156 0.335938 17.070312 0.5 15.15625 0.5 Z M 15.15625 0.5 "/>
</g>
<g id="glyph-1-1">
<path d="M 28.984375 -13.84375 C 28.984375 -9.257812 27.78125 -5.722656 25.375 -3.234375 C 22.96875 -0.742188 19.691406 0.5 15.546875 0.5 C 12.992188 0.5 10.710938 -0.0507812 8.703125 -1.15625 C 6.703125 -2.269531 5.128906 -3.894531 3.984375 -6.03125 C 2.835938 -8.164062 2.265625 -10.769531 2.265625 -13.84375 C 2.265625 -18.414062 3.457031 -21.929688 5.84375 -24.390625 C 8.238281 -26.847656 11.523438 -28.078125 15.703125 -28.078125 C 18.296875 -28.078125 20.582031 -27.519531 22.5625 -26.40625 C 24.550781 -25.300781 26.117188 -23.695312 27.265625 -21.59375 C 28.410156 -19.488281 28.984375 -16.90625 28.984375 -13.84375 Z M 9.953125 -13.84375 C 9.953125 -11.113281 10.394531 -9.050781 11.28125 -7.65625 C 12.175781 -6.257812 13.632812 -5.5625 15.65625 -5.5625 C 17.644531 -5.5625 19.082031 -6.257812 19.96875 -7.65625 C 20.863281 -9.050781 21.3125 -11.113281 21.3125 -13.84375 C 21.3125 -16.5625 20.863281 -18.601562 19.96875 -19.96875 C 19.082031 -21.332031 17.628906 -22.015625 15.609375 -22.015625 C 13.617188 -22.015625 12.175781 -21.332031 11.28125 -19.96875 C 10.394531 -18.601562 9.953125 -16.5625 9.953125 -13.84375 Z M 9.953125 -13.84375 "/>
</g>
<g id="glyph-1-2">
<path d="M 19.59375 -28.078125 C 22.550781 -28.078125 24.921875 -27.273438 26.703125 -25.671875 C 28.492188 -24.078125 29.390625 -21.515625 29.390625 -17.984375 L 29.390625 0 L 21.859375 0 L 21.859375 -16.109375 C 21.859375 -18.097656 21.503906 -19.585938 20.796875 -20.578125 C 20.097656 -21.566406 18.972656 -22.0625 17.421875 -22.0625 C 15.128906 -22.0625 13.5625 -21.28125 12.71875 -19.71875 C 11.882812 -18.15625 11.46875 -15.910156 11.46875 -12.984375 L 11.46875 0 L 3.9375 0 L 3.9375 -27.578125 L 9.703125 -27.578125 L 10.703125 -24.03125 L 11.109375 -24.03125 C 11.984375 -25.445312 13.1875 -26.472656 14.71875 -27.109375 C 16.25 -27.753906 17.875 -28.078125 19.59375 -28.078125 Z M 19.59375 -28.078125 "/>
</g>
<g id="glyph-1-3">
<path d="M 15.546875 -5.5 C 16.390625 -5.5 17.195312 -5.582031 17.96875 -5.75 C 18.75 -5.925781 19.523438 -6.128906 20.296875 -6.359375 L 20.296875 -0.75 C 19.492188 -0.414062 18.492188 -0.125 17.296875 0.125 C 16.097656 0.375 14.789062 0.5 13.375 0.5 C 11.726562 0.5 10.253906 0.234375 8.953125 -0.296875 C 7.660156 -0.835938 6.632812 -1.769531 5.875 -3.09375 C 5.125 -4.425781 4.75 -6.273438 4.75 -8.640625 L 4.75 -21.921875 L 1.15625 -21.921875 L 1.15625 -25.09375 L 5.296875 -27.625 L 7.46875 -33.4375 L 12.265625 -33.4375 L 12.265625 -27.578125 L 20 -27.578125 L 20 -21.921875 L 12.265625 -21.921875 L 12.265625 -8.640625 C 12.265625 -7.585938 12.566406 -6.800781 13.171875 -6.28125 C 13.785156 -5.757812 14.578125 -5.5 15.546875 -5.5 Z M 15.546875 -5.5 "/>
</g>
<g id="glyph-1-4">
<path d="M 19.34375 -28.078125 C 19.707031 -28.078125 20.140625 -28.0625 20.640625 -28.03125 C 21.148438 -28 21.554688 -27.945312 21.859375 -27.875 L 21.3125 -20.8125 C 21.070312 -20.875 20.722656 -20.929688 20.265625 -20.984375 C 19.816406 -21.035156 19.425781 -21.0625 19.09375 -21.0625 C 17.8125 -21.0625 16.582031 -20.832031 15.40625 -20.375 C 14.226562 -19.914062 13.273438 -19.179688 12.546875 -18.171875 C 11.828125 -17.171875 11.46875 -15.789062 11.46875 -14.03125 L 11.46875 0 L 3.9375 0 L 3.9375 -27.578125 L 9.640625 -27.578125 L 10.75 -22.921875 L 11.109375 -22.921875 C 11.921875 -24.335938 13.03125 -25.550781 14.4375 -26.5625 C 15.851562 -27.570312 17.488281 -28.078125 19.34375 -28.078125 Z M 19.34375 -28.078125 "/>
</g>
<g id="glyph-1-5">
<path d="M 11.46875 0 L 3.9375 0 L 3.9375 -38.375 L 11.46875 -38.375 Z M 11.46875 0 "/>
</g>
<g id="glyph-2-0">
<path d="M 0.5 -12.671875 C 0.5 -9.609375 -0.703125 -7.109375 -3.109375 -5.171875 C -5.515625 -3.234375 -9.054688 -2.265625 -13.734375 -2.265625 C -18.453125 -2.265625 -22.019531 -3.238281 -24.4375 -5.1875 C -26.863281 -7.144531 -28.078125 -9.707031 -28.078125 -12.875 C -28.078125 -14.863281 -27.6875 -16.492188 -26.90625 -17.765625 C -26.132812 -19.046875 -25.175781 -20.0625 -24.03125 -20.8125 L -24.03125 -21.0625 C -24.570312 -20.957031 -25.351562 -20.835938 -26.375 -20.703125 C -27.40625 -20.566406 -28.460938 -20.5 -29.546875 -20.5 L -38.375 -20.5 L -38.375 -28.03125 L 0 -28.03125 L 0 -22.265625 L -3.578125 -20.8125 L -3.578125 -20.5 C -2.441406 -19.757812 -1.476562 -18.765625 -0.6875 -17.515625 C 0.101562 -16.273438 0.5 -14.660156 0.5 -12.671875 Z M -5.5 -15.296875 C -5.5 -17.390625 -6.113281 -18.851562 -7.34375 -19.6875 C -8.570312 -20.53125 -10.414062 -20.972656 -12.875 -21.015625 L -13.6875 -21.015625 C -16.375 -21.015625 -18.425781 -20.597656 -19.84375 -19.765625 C -21.257812 -18.941406 -21.96875 -17.421875 -21.96875 -15.203125 C -21.96875 -13.546875 -21.25 -12.242188 -19.8125 -11.296875 C -18.382812 -10.359375 -16.328125 -9.890625 -13.640625 -9.890625 C -10.941406 -9.890625 -8.910156 -10.359375 -7.546875 -11.296875 C -6.179688 -12.242188 -5.5 -13.578125 -5.5 -15.296875 Z M -5.5 -15.296875 "/>
</g>
<g id="glyph-2-1">
<path d="M -28.078125 -15.296875 C -28.078125 -19.109375 -26.988281 -22.125 -24.8125 -24.34375 C -22.644531 -26.5625 -19.554688 -27.671875 -15.546875 -27.671875 L -11.921875 -27.671875 L -11.921875 -9.890625 C -9.796875 -9.960938 -8.125 -10.59375 -6.90625 -11.78125 C -5.695312 -12.976562 -5.09375 -14.640625 -5.09375 -16.765625 C -5.09375 -18.546875 -5.269531 -20.160156 -5.625 -21.609375 C -5.976562 -23.054688 -6.523438 -24.554688 -7.265625 -26.109375 L -1.46875 -26.109375 C -0.789062 -24.765625 -0.296875 -23.34375 0.015625 -21.84375 C 0.335938 -20.34375 0.5 -18.53125 0.5 -16.40625 C 0.5 -13.644531 -0.0078125 -11.203125 -1.03125 -9.078125 C -2.0625 -6.960938 -3.617188 -5.296875 -5.703125 -4.078125 C -7.796875 -2.867188 -10.421875 -2.265625 -13.578125 -2.265625 C -16.816406 -2.265625 -19.503906 -2.8125 -21.640625 -3.90625 C -23.773438 -5.007812 -25.378906 -6.535156 -26.453125 -8.484375 C -27.535156 -10.429688 -28.078125 -12.703125 -28.078125 -15.296875 Z M -22.71875 -15.359375 C -22.71875 -13.910156 -22.242188 -12.703125 -21.296875 -11.734375 C -20.359375 -10.773438 -18.898438 -10.210938 -16.921875 -10.046875 L -16.921875 -20.609375 C -18.597656 -20.566406 -19.984375 -20.125 -21.078125 -19.28125 C -22.171875 -18.445312 -22.71875 -17.140625 -22.71875 -15.359375 Z M -22.71875 -15.359375 "/>
</g>
<g id="glyph-2-2">
<path d="M -28.078125 -36.3125 C -28.078125 -39.4375 -27.273438 -41.796875 -25.671875 -43.390625 C -24.078125 -44.992188 -21.515625 -45.796875 -17.984375 -45.796875 L 0 -45.796875 L 0 -38.28125 L -16.109375 -38.28125 C -20.078125 -38.28125 -22.0625 -36.898438 -22.0625 -34.140625 C -22.0625 -32.148438 -21.351562 -30.734375 -19.9375 -29.890625 C -18.53125 -29.054688 -16.5 -28.640625 -13.84375 -28.640625 L 0 -28.640625 L 0 -21.109375 L -16.109375 -21.109375 C -20.078125 -21.109375 -22.0625 -19.726562 -22.0625 -16.96875 C -22.0625 -14.882812 -21.28125 -13.445312 -19.71875 -12.65625 C -18.15625 -11.863281 -15.910156 -11.46875 -12.984375 -11.46875 L 0 -11.46875 L 0 -3.9375 L -27.578125 -3.9375 L -27.578125 -9.703125 L -24.03125 -10.703125 L -24.03125 -11.109375 C -25.445312 -11.953125 -26.472656 -13.101562 -27.109375 -14.5625 C -27.753906 -16.03125 -28.078125 -17.554688 -28.078125 -19.140625 C -28.078125 -21.160156 -27.75 -22.875 -27.09375 -24.28125 C -26.4375 -25.695312 -25.414062 -26.773438 -24.03125 -27.515625 L -24.03125 -28.171875 C -25.445312 -29.015625 -26.472656 -30.1875 -27.109375 -31.6875 C -27.753906 -33.1875 -28.078125 -34.726562 -28.078125 -36.3125 Z M -28.078125 -36.3125 "/>
</g>
<g id="glyph-2-3">
<path d="M -28.078125 -19.59375 C -28.078125 -22.550781 -27.273438 -24.921875 -25.671875 -26.703125 C -24.078125 -28.492188 -21.515625 -29.390625 -17.984375 -29.390625 L 0 -29.390625 L 0 -21.859375 L -16.109375 -21.859375 C -18.097656 -21.859375 -19.585938 -21.503906 -20.578125 -20.796875 C -21.566406 -20.097656 -22.0625 -18.972656 -22.0625 -17.421875 C -22.0625 -15.128906 -21.28125 -13.5625 -19.71875 -12.71875 C -18.15625 -11.882812 -15.910156 -11.46875 -12.984375 -11.46875 L 0 -11.46875 L 0 -3.9375 L -27.578125 -3.9375 L -27.578125 -9.703125 L -24.03125 -10.703125 L -24.03125 -11.109375 C -25.445312 -11.984375 -26.472656 -13.1875 -27.109375 -14.71875 C -27.753906 -16.25 -28.078125 -17.875 -28.078125 -19.59375 Z M -28.078125 -19.59375 "/>
</g>
<g id="glyph-2-4">
<path d="M -5.5 -15.546875 C -5.5 -16.390625 -5.582031 -17.195312 -5.75 -17.96875 C -5.925781 -18.75 -6.128906 -19.523438 -6.359375 -20.296875 L -0.75 -20.296875 C -0.414062 -19.492188 -0.125 -18.492188 0.125 -17.296875 C 0.375 -16.097656 0.5 -14.789062 0.5 -13.375 C 0.5 -11.726562 0.234375 -10.253906 -0.296875 -8.953125 C -0.835938 -7.660156 -1.769531 -6.632812 -3.09375 -5.875 C -4.425781 -5.125 -6.273438 -4.75 -8.640625 -4.75 L -21.921875 -4.75 L -21.921875 -1.15625 L -25.09375 -1.15625 L -27.625 -5.296875 L -33.4375 -7.46875 L -33.4375 -12.265625 L -27.578125 -12.265625 L -27.578125 -20 L -21.921875 -20 L -21.921875 -12.265625 L -8.640625 -12.265625 C -7.585938 -12.265625 -6.800781 -12.566406 -6.28125 -13.171875 C -5.757812 -13.785156 -5.5 -14.578125 -5.5 -15.546875 Z M -5.5 -15.546875 "/>
</g>
<g id="glyph-2-5">
<path d="M -38.375 -7.71875 C -38.375 -8.832031 -38.113281 -9.789062 -37.59375 -10.59375 C -37.070312 -11.40625 -36.101562 -11.8125 -34.6875 -11.8125 C -33.3125 -11.8125 -32.351562 -11.40625 -31.8125 -10.59375 C -31.269531 -9.789062 -31 -8.832031 -31 -7.71875 C -31 -6.582031 -31.269531 -5.617188 -31.8125 -4.828125 C -32.351562 -4.035156 -33.3125 -3.640625 -34.6875 -3.640625 C -36.101562 -3.640625 -37.070312 -4.035156 -37.59375 -4.828125 C -38.113281 -5.617188 -38.375 -6.582031 -38.375 -7.71875 Z M -27.578125 -11.46875 L 0 -11.46875 L 0 -3.9375 L -27.578125 -3.9375 Z M -27.578125 -11.46875 "/>
</g>
<g id="glyph-2-6">
<path d="M -28.125 -15.25 C -28.125 -18.957031 -27.320312 -21.796875 -25.71875 -23.765625 C -24.125 -25.734375 -21.675781 -26.71875 -18.375 -26.71875 L 0 -26.71875 L 0 -21.46875 L -3.734375 -20 L -3.734375 -19.796875 C -2.253906 -18.617188 -1.175781 -17.375 -0.5 -16.0625 C 0.164062 -14.75 0.5 -12.945312 0.5 -10.65625 C 0.5 -8.195312 -0.210938 -6.160156 -1.640625 -4.546875 C -3.066406 -2.929688 -5.265625 -2.125 -8.234375 -2.125 C -11.160156 -2.125 -13.320312 -3.148438 -14.71875 -5.203125 C -16.113281 -7.253906 -16.878906 -10.332031 -17.015625 -14.4375 L -17.171875 -19.234375 L -18.375 -19.234375 C -19.820312 -19.234375 -20.882812 -18.851562 -21.5625 -18.09375 C -22.238281 -17.34375 -22.578125 -16.296875 -22.578125 -14.953125 C -22.578125 -13.597656 -22.378906 -12.28125 -21.984375 -11 C -21.597656 -9.726562 -21.117188 -8.453125 -20.546875 -7.171875 L -25.65625 -4.703125 C -26.425781 -6.179688 -27.03125 -7.820312 -27.46875 -9.625 C -27.90625 -11.425781 -28.125 -13.300781 -28.125 -15.25 Z M -12.671875 -16.3125 C -12.609375 -13.882812 -12.171875 -12.195312 -11.359375 -11.25 C -10.554688 -10.3125 -9.5 -9.84375 -8.1875 -9.84375 C -7.039062 -9.84375 -6.222656 -10.179688 -5.734375 -10.859375 C -5.242188 -11.535156 -5 -12.410156 -5 -13.484375 C -5 -15.097656 -5.476562 -16.457031 -6.4375 -17.5625 C -7.394531 -18.675781 -8.75 -19.234375 -10.5 -19.234375 L -12.78125 -19.234375 Z M -12.671875 -16.3125 "/>
</g>
<g id="glyph-3-0">
<path d="M -1.109375 12.125 L 7.171875 -27.0625 L 10.8125 -27.0625 L 10.203125 -22.015625 L 10.40625 -22.015625 C 11.582031 -23.492188 12.910156 -24.78125 14.390625 -25.875 C 15.867188 -26.96875 17.550781 -27.515625 19.4375 -27.515625 C 21.625 -27.515625 23.390625 -26.738281 24.734375 -25.1875 C 26.085938 -23.644531 26.765625 -21.34375 26.765625 -18.28125 C 26.765625 -15.820312 26.460938 -13.460938 25.859375 -11.203125 C 25.253906 -8.953125 24.378906 -6.941406 23.234375 -5.171875 C 22.085938 -3.410156 20.695312 -2.023438 19.0625 -1.015625 C 17.425781 -0.00390625 15.597656 0.5 13.578125 0.5 C 11.765625 0.5 10.300781 0.0390625 9.1875 -0.875 C 8.082031 -1.800781 7.242188 -2.890625 6.671875 -4.140625 L 6.40625 -4.140625 C 6.375 -3.597656 6.289062 -2.847656 6.15625 -1.890625 C 6.019531 -0.929688 5.882812 -0.148438 5.75 0.453125 L 3.28125 12.125 Z M 13.234375 -3.1875 C 14.578125 -3.1875 15.800781 -3.613281 16.90625 -4.46875 C 18.019531 -5.320312 18.972656 -6.472656 19.765625 -7.921875 C 20.554688 -9.367188 21.160156 -11 21.578125 -12.8125 C 22.003906 -14.632812 22.21875 -16.488281 22.21875 -18.375 C 22.21875 -22.019531 20.785156 -23.84375 17.921875 -23.84375 C 16.816406 -23.84375 15.679688 -23.425781 14.515625 -22.59375 C 13.359375 -21.769531 12.289062 -20.648438 11.3125 -19.234375 C 10.332031 -17.828125 9.546875 -16.210938 8.953125 -14.390625 C 8.367188 -12.578125 8.078125 -10.660156 8.078125 -8.640625 C 8.078125 -7.023438 8.5 -5.710938 9.34375 -4.703125 C 10.1875 -3.691406 11.484375 -3.1875 13.234375 -3.1875 Z M 13.234375 -3.1875 "/>
</g>
<g id="glyph-3-1">
<path d="M 1.3125 -11.46875 L 2.21875 -15.546875 L 14.140625 -15.546875 L 13.234375 -11.46875 Z M 1.3125 -11.46875 "/>
</g>
<g id="glyph-3-2">
<path d="M 5.5625 0 L 2.421875 -27.0625 L 6.875 -27.0625 L 8.390625 -12.015625 C 8.484375 -11.140625 8.570312 -10.113281 8.65625 -8.9375 C 8.738281 -7.757812 8.804688 -6.65625 8.859375 -5.625 C 8.910156 -4.601562 8.9375 -3.859375 8.9375 -3.390625 L 9.09375 -3.390625 C 9.457031 -4.222656 9.890625 -5.175781 10.390625 -6.25 C 10.898438 -7.332031 11.414062 -8.410156 11.9375 -9.484375 C 12.457031 -10.566406 12.90625 -11.460938 13.28125 -12.171875 L 21.265625 -27.0625 L 26 -27.0625 L 11.359375 0 Z M 5.5625 0 "/>
</g>
<g id="glyph-3-3">
<path d="M 9.75 0.5 C 7.59375 0.5 5.832031 -0.28125 4.46875 -1.84375 C 3.101562 -3.40625 2.421875 -5.703125 2.421875 -8.734375 C 2.421875 -11.265625 2.75 -13.664062 3.40625 -15.9375 C 4.0625 -18.207031 4.976562 -20.207031 6.15625 -21.9375 C 7.332031 -23.675781 8.726562 -25.050781 10.34375 -26.0625 C 11.96875 -27.070312 13.753906 -27.578125 15.703125 -27.578125 C 17.484375 -27.578125 18.929688 -27.101562 20.046875 -26.15625 C 21.160156 -25.21875 21.984375 -24.125 22.515625 -22.875 L 22.78125 -22.875 L 24.390625 -27.0625 L 27.78125 -27.0625 L 22.015625 0 L 18.484375 0 L 19.140625 -5 L 18.9375 -5 C 17.789062 -3.519531 16.441406 -2.234375 14.890625 -1.140625 C 13.347656 -0.046875 11.632812 0.5 9.75 0.5 Z M 11.21875 -3.1875 C 12.457031 -3.1875 13.675781 -3.640625 14.875 -4.546875 C 16.070312 -5.453125 17.15625 -6.675781 18.125 -8.21875 C 19.101562 -9.769531 19.84375 -11.507812 20.34375 -13.4375 C 20.613281 -14.40625 20.789062 -15.300781 20.875 -16.125 C 20.96875 -16.957031 21.015625 -17.726562 21.015625 -18.4375 C 21.015625 -20.019531 20.570312 -21.316406 19.6875 -22.328125 C 18.8125 -23.335938 17.632812 -23.84375 16.15625 -23.84375 C 14.84375 -23.84375 13.628906 -23.425781 12.515625 -22.59375 C 11.410156 -21.769531 10.4375 -20.640625 9.59375 -19.203125 C 8.75 -17.773438 8.097656 -16.148438 7.640625 -14.328125 C 7.191406 -12.515625 6.96875 -10.617188 6.96875 -8.640625 C 6.96875 -6.816406 7.335938 -5.453125 8.078125 -4.546875 C 8.816406 -3.640625 9.863281 -3.1875 11.21875 -3.1875 Z M 11.21875 -3.1875 "/>
</g>
<g id="glyph-3-4">
<path d="M 1.359375 0 L 9.546875 -38.375 L 13.984375 -38.375 L 5.8125 0 Z M 1.359375 0 "/>
</g>
<g id="glyph-3-5">
<path d="M 9.546875 0.5 C 7.492188 0.5 5.851562 -0.0664062 4.625 -1.203125 C 3.394531 -2.347656 2.78125 -4.019531 2.78125 -6.21875 C 2.78125 -6.988281 2.835938 -7.71875 2.953125 -8.40625 C 3.066406 -9.09375 3.191406 -9.804688 3.328125 -10.546875 L 6.875 -27.0625 L 11.359375 -27.0625 L 7.71875 -10.046875 C 7.414062 -8.597656 7.265625 -7.472656 7.265625 -6.671875 C 7.265625 -5.585938 7.539062 -4.734375 8.09375 -4.109375 C 8.65625 -3.492188 9.5625 -3.1875 10.8125 -3.1875 C 11.957031 -3.1875 13.191406 -3.585938 14.515625 -4.390625 C 15.847656 -5.203125 17.085938 -6.5 18.234375 -8.28125 C 19.378906 -10.0625 20.269531 -12.4375 20.90625 -15.40625 L 23.375 -27.0625 L 27.78125 -27.0625 L 22.015625 0 L 18.375 0 L 18.9375 -5 L 18.6875 -5 C 18.039062 -4.1875 17.289062 -3.351562 16.4375 -2.5 C 15.582031 -1.644531 14.585938 -0.929688 13.453125 -0.359375 C 12.328125 0.210938 11.023438 0.5 9.546875 0.5 Z M 9.546875 0.5 "/>
</g>
<g id="glyph-3-6">
<path d="M 12.21875 0.5 C 9.09375 0.5 6.675781 -0.414062 4.96875 -2.25 C 3.269531 -4.082031 2.421875 -6.566406 2.421875 -9.703125 C 2.421875 -11.847656 2.734375 -13.972656 3.359375 -16.078125 C 3.984375 -18.179688 4.882812 -20.097656 6.0625 -21.828125 C 7.238281 -23.566406 8.660156 -24.957031 10.328125 -26 C 11.992188 -27.050781 13.867188 -27.578125 15.953125 -27.578125 C 18.515625 -27.578125 20.441406 -27.019531 21.734375 -25.90625 C 23.035156 -24.789062 23.6875 -23.242188 23.6875 -21.265625 C 23.6875 -19.515625 23.140625 -17.914062 22.046875 -16.46875 C 20.953125 -15.019531 19.242188 -13.863281 16.921875 -13 C 14.597656 -12.144531 11.582031 -11.71875 7.875 -11.71875 L 7.015625 -11.71875 C 6.984375 -11.414062 6.957031 -11.09375 6.9375 -10.75 C 6.925781 -10.414062 6.921875 -10.113281 6.921875 -9.84375 C 6.921875 -7.789062 7.425781 -6.164062 8.4375 -4.96875 C 9.445312 -3.78125 10.976562 -3.1875 13.03125 -3.1875 C 14.3125 -3.1875 15.519531 -3.367188 16.65625 -3.734375 C 17.800781 -4.109375 19.050781 -4.613281 20.40625 -5.25 L 20.40625 -1.46875 C 19.125 -0.894531 17.867188 -0.421875 16.640625 -0.046875 C 15.410156 0.316406 13.9375 0.5 12.21875 0.5 Z M 8.03125 -15.296875 C 10.050781 -15.296875 11.914062 -15.472656 13.625 -15.828125 C 15.34375 -16.179688 16.722656 -16.769531 17.765625 -17.59375 C 18.816406 -18.425781 19.34375 -19.53125 19.34375 -20.90625 C 19.34375 -21.78125 19.046875 -22.492188 18.453125 -23.046875 C 17.867188 -23.609375 16.953125 -23.890625 15.703125 -23.890625 C 14.085938 -23.890625 12.53125 -23.140625 11.03125 -21.640625 C 9.53125 -20.140625 8.410156 -18.023438 7.671875 -15.296875 Z M 8.03125 -15.296875 "/>
</g>
<g id="glyph-4-0">
<path d="M 2.03125 -7.859375 L 17.296875 -14.21875 L 2.03125 -21.46875 L 2.03125 -24.625 L 21.09375 -15.109375 L 21.09375 -13.078125 L 2.03125 -4.703125 Z M 2.03125 -7.859375 "/>
</g>
<g id="glyph-4-1">
<path d="M 21.1875 -14.5 C 21.1875 -11.394531 20.859375 -8.726562 20.203125 -6.5 C 19.554688 -4.269531 18.53125 -2.5625 17.125 -1.375 C 15.726562 -0.1875 13.867188 0.40625 11.546875 0.40625 C 8.273438 0.40625 5.863281 -0.910156 4.3125 -3.546875 C 2.757812 -6.179688 1.984375 -9.832031 1.984375 -14.5 C 1.984375 -17.632812 2.300781 -20.304688 2.9375 -22.515625 C 3.570312 -24.734375 4.585938 -26.425781 5.984375 -27.59375 C 7.390625 -28.769531 9.242188 -29.359375 11.546875 -29.359375 C 14.785156 -29.359375 17.203125 -28.054688 18.796875 -25.453125 C 20.390625 -22.847656 21.1875 -19.195312 21.1875 -14.5 Z M 5.546875 -14.5 C 5.546875 -10.53125 6 -7.554688 6.90625 -5.578125 C 7.8125 -3.609375 9.359375 -2.625 11.546875 -2.625 C 13.703125 -2.625 15.242188 -3.601562 16.171875 -5.5625 C 17.109375 -7.519531 17.578125 -10.5 17.578125 -14.5 C 17.578125 -18.4375 17.109375 -21.390625 16.171875 -23.359375 C 15.242188 -25.335938 13.703125 -26.328125 11.546875 -26.328125 C 9.359375 -26.328125 7.8125 -25.335938 6.90625 -23.359375 C 6 -21.390625 5.546875 -18.4375 5.546875 -14.5 Z M 5.546875 -14.5 "/>
</g>
<g id="glyph-4-2">
<path d="M 2.921875 -2.1875 C 2.921875 -3.1875 3.160156 -3.890625 3.640625 -4.296875 C 4.128906 -4.703125 4.710938 -4.90625 5.390625 -4.90625 C 6.085938 -4.90625 6.6875 -4.703125 7.1875 -4.296875 C 7.6875 -3.890625 7.9375 -3.1875 7.9375 -2.1875 C 7.9375 -1.21875 7.6875 -0.515625 7.1875 -0.078125 C 6.6875 0.347656 6.085938 0.5625 5.390625 0.5625 C 4.710938 0.5625 4.128906 0.347656 3.640625 -0.078125 C 3.160156 -0.515625 2.921875 -1.21875 2.921875 -2.1875 Z M 2.921875 -2.1875 "/>
</g>
<g id="glyph-4-3">
<path d="M 11.140625 -17.734375 C 14.109375 -17.734375 16.46875 -16.988281 18.21875 -15.5 C 19.976562 -14.019531 20.859375 -11.929688 20.859375 -9.234375 C 20.859375 -6.234375 19.90625 -3.875 18 -2.15625 C 16.09375 -0.445312 13.441406 0.40625 10.046875 0.40625 C 8.554688 0.40625 7.15625 0.269531 5.84375 0 C 4.539062 -0.269531 3.441406 -0.660156 2.546875 -1.171875 L 2.546875 -4.53125 C 3.523438 -3.9375 4.707031 -3.46875 6.09375 -3.125 C 7.488281 -2.789062 8.816406 -2.625 10.078125 -2.625 C 12.210938 -2.625 13.9375 -3.128906 15.25 -4.140625 C 16.5625 -5.160156 17.21875 -6.738281 17.21875 -8.875 C 17.21875 -10.757812 16.632812 -12.207031 15.46875 -13.21875 C 14.3125 -14.226562 12.476562 -14.734375 9.96875 -14.734375 C 9.207031 -14.734375 8.335938 -14.664062 7.359375 -14.53125 C 6.390625 -14.40625 5.609375 -14.273438 5.015625 -14.140625 L 3.234375 -15.265625 L 4.328125 -28.921875 L 18.828125 -28.921875 L 18.828125 -25.671875 L 7.375 -25.671875 L 6.6875 -17.296875 C 7.144531 -17.378906 7.765625 -17.472656 8.546875 -17.578125 C 9.328125 -17.679688 10.191406 -17.734375 11.140625 -17.734375 Z M 11.140625 -17.734375 "/>
</g>
<g id="glyph-5-0">
<path d="M 48.078125 -25.65625 C 48.078125 -17.15625 45.664062 -10.753906 40.84375 -6.453125 C 36.03125 -2.148438 29.28125 0 20.59375 0 L 6.34375 0 L 6.34375 -50.34375 L 22.140625 -50.34375 C 27.398438 -50.34375 31.96875 -49.398438 35.84375 -47.515625 C 39.726562 -45.640625 42.738281 -42.878906 44.875 -39.234375 C 47.007812 -35.585938 48.078125 -31.0625 48.078125 -25.65625 Z M 37.015625 -25.375 C 37.015625 -30.96875 35.789062 -35.066406 33.34375 -37.671875 C 30.90625 -40.285156 27.359375 -41.59375 22.703125 -41.59375 L 16.984375 -41.59375 L 16.984375 -8.8125 L 21.578125 -8.8125 C 31.867188 -8.8125 37.015625 -14.332031 37.015625 -25.375 Z M 37.015625 -25.375 "/>
</g>
<g id="glyph-5-1">
<path d="M 21.359375 -39.203125 C 26.671875 -39.203125 30.878906 -37.6875 33.984375 -34.65625 C 37.085938 -31.625 38.640625 -27.3125 38.640625 -21.71875 L 38.640625 -16.640625 L 13.8125 -16.640625 C 13.90625 -13.679688 14.785156 -11.351562 16.453125 -9.65625 C 18.128906 -7.96875 20.445312 -7.125 23.40625 -7.125 C 25.894531 -7.125 28.148438 -7.367188 30.171875 -7.859375 C 32.191406 -8.347656 34.285156 -9.113281 36.453125 -10.15625 L 36.453125 -2.046875 C 34.566406 -1.109375 32.578125 -0.414062 30.484375 0.03125 C 28.398438 0.476562 25.875 0.703125 22.90625 0.703125 C 19.050781 0.703125 15.644531 -0.0078125 12.6875 -1.4375 C 9.726562 -2.875 7.398438 -5.050781 5.703125 -7.96875 C 4.015625 -10.882812 3.171875 -14.550781 3.171875 -18.96875 C 3.171875 -23.476562 3.929688 -27.222656 5.453125 -30.203125 C 6.984375 -33.191406 9.113281 -35.4375 11.84375 -36.9375 C 14.570312 -38.445312 17.742188 -39.203125 21.359375 -39.203125 Z M 21.4375 -31.71875 C 19.414062 -31.71875 17.734375 -31.0625 16.390625 -29.75 C 15.046875 -28.4375 14.257812 -26.394531 14.03125 -23.625 L 28.765625 -23.625 C 28.710938 -25.96875 28.097656 -27.898438 26.921875 -29.421875 C 25.753906 -30.953125 23.925781 -31.71875 21.4375 -31.71875 Z M 21.4375 -31.71875 "/>
</g>
<g id="glyph-5-2">
<path d="M 26.9375 -39.203125 C 31.257812 -39.203125 34.757812 -37.519531 37.4375 -34.15625 C 40.113281 -30.789062 41.453125 -25.84375 41.453125 -19.3125 C 41.453125 -12.78125 40.066406 -7.8125 37.296875 -4.40625 C 34.523438 -1 30.976562 0.703125 26.65625 0.703125 C 23.875 0.703125 21.660156 0.195312 20.015625 -0.8125 C 18.367188 -1.820312 17.03125 -2.960938 16 -4.234375 L 15.4375 -4.234375 C 15.8125 -2.253906 16 -0.375 16 1.40625 L 16 16.921875 L 5.5 16.921875 L 5.5 -38.5 L 14.03125 -38.5 L 15.515625 -33.484375 L 16 -33.484375 C 17.03125 -35.035156 18.414062 -36.375 20.15625 -37.5 C 21.894531 -38.632812 24.15625 -39.203125 26.9375 -39.203125 Z M 23.546875 -30.8125 C 20.816406 -30.8125 18.898438 -29.960938 17.796875 -28.265625 C 16.691406 -26.578125 16.09375 -23.992188 16 -20.515625 L 16 -19.390625 C 16 -15.671875 16.550781 -12.8125 17.65625 -10.8125 C 18.757812 -8.820312 20.769531 -7.828125 23.6875 -7.828125 C 26.082031 -7.828125 27.851562 -8.820312 29 -10.8125 C 30.15625 -12.8125 30.734375 -15.691406 30.734375 -19.453125 C 30.734375 -27.023438 28.335938 -30.8125 23.546875 -30.8125 Z M 23.546875 -30.8125 "/>
</g>
<g id="glyph-5-3">
<path d="M 2.109375 -14.59375 L 2.109375 -23.1875 L 20.59375 -23.1875 L 20.59375 -14.59375 Z M 2.109375 -14.59375 "/>
</g>
<g id="glyph-5-4">
<path d="M 32.359375 -11.421875 C 32.359375 -7.515625 30.984375 -4.515625 28.234375 -2.421875 C 25.484375 -0.335938 21.382812 0.703125 15.9375 0.703125 C 13.257812 0.703125 10.957031 0.523438 9.03125 0.171875 C 7.101562 -0.179688 5.175781 -0.753906 3.25 -1.546875 L 3.25 -10.21875 C 5.3125 -9.28125 7.539062 -8.503906 9.9375 -7.890625 C 12.332031 -7.285156 14.445312 -6.984375 16.28125 -6.984375 C 18.351562 -6.984375 19.820312 -7.285156 20.6875 -7.890625 C 21.5625 -8.503906 22 -9.304688 22 -10.296875 C 22 -10.953125 21.820312 -11.535156 21.46875 -12.046875 C 21.113281 -12.566406 20.347656 -13.15625 19.171875 -13.8125 C 17.992188 -14.476562 16.160156 -15.328125 13.671875 -16.359375 C 11.273438 -17.390625 9.300781 -18.410156 7.75 -19.421875 C 6.195312 -20.429688 5.046875 -21.648438 4.296875 -23.078125 C 3.546875 -24.515625 3.171875 -26.316406 3.171875 -28.484375 C 3.171875 -32.054688 4.554688 -34.734375 7.328125 -36.515625 C 10.097656 -38.304688 13.789062 -39.203125 18.40625 -39.203125 C 20.800781 -39.203125 23.078125 -38.960938 25.234375 -38.484375 C 27.398438 -38.015625 29.632812 -37.242188 31.9375 -36.171875 L 28.765625 -28.625 C 26.878906 -29.425781 25.09375 -30.09375 23.40625 -30.625 C 21.71875 -31.164062 20.003906 -31.4375 18.265625 -31.4375 C 15.160156 -31.4375 13.609375 -30.59375 13.609375 -28.90625 C 13.609375 -28.289062 13.804688 -27.738281 14.203125 -27.25 C 14.609375 -26.757812 15.382812 -26.226562 16.53125 -25.65625 C 17.6875 -25.09375 19.390625 -24.34375 21.640625 -23.40625 C 23.847656 -22.507812 25.75 -21.578125 27.34375 -20.609375 C 28.945312 -19.648438 30.179688 -18.453125 31.046875 -17.015625 C 31.921875 -15.585938 32.359375 -13.722656 32.359375 -11.421875 Z M 32.359375 -11.421875 "/>
</g>
<g id="glyph-5-5">
<path d="M 21.296875 -39.265625 C 26.460938 -39.265625 30.421875 -38.148438 33.171875 -35.921875 C 35.921875 -33.691406 37.296875 -30.269531 37.296875 -25.65625 L 37.296875 0 L 29.96875 0 L 27.921875 -5.21875 L 27.640625 -5.21875 C 25.992188 -3.144531 24.253906 -1.640625 22.421875 -0.703125 C 20.585938 0.234375 18.070312 0.703125 14.875 0.703125 C 11.445312 0.703125 8.601562 -0.289062 6.34375 -2.28125 C 4.09375 -4.28125 2.96875 -7.347656 2.96875 -11.484375 C 2.96875 -15.578125 4.398438 -18.597656 7.265625 -20.546875 C 10.128906 -22.492188 14.425781 -23.566406 20.15625 -23.765625 L 26.859375 -23.96875 L 26.859375 -25.65625 C 26.859375 -27.675781 26.328125 -29.15625 25.265625 -30.09375 C 24.210938 -31.039062 22.75 -31.515625 20.875 -31.515625 C 18.988281 -31.515625 17.148438 -31.242188 15.359375 -30.703125 C 13.578125 -30.160156 11.796875 -29.488281 10.015625 -28.6875 L 6.5625 -35.8125 C 8.625 -36.894531 10.910156 -37.738281 13.421875 -38.34375 C 15.941406 -38.957031 18.566406 -39.265625 21.296875 -39.265625 Z M 22.765625 -17.703125 C 19.390625 -17.597656 17.039062 -16.984375 15.71875 -15.859375 C 14.40625 -14.734375 13.75 -13.253906 13.75 -11.421875 C 13.75 -9.828125 14.21875 -8.6875 15.15625 -8 C 16.09375 -7.320312 17.316406 -6.984375 18.828125 -6.984375 C 21.078125 -6.984375 22.976562 -7.648438 24.53125 -8.984375 C 26.082031 -10.328125 26.859375 -12.21875 26.859375 -14.65625 L 26.859375 -17.84375 Z M 22.765625 -17.703125 "/>
</g>
<g id="glyph-5-6">
</g>
<g id="glyph-5-7">
<path d="M 21.71875 -7.6875 C 22.882812 -7.6875 24.007812 -7.800781 25.09375 -8.03125 C 26.175781 -8.269531 27.257812 -8.554688 28.34375 -8.890625 L 28.34375 -1.0625 C 27.21875 -0.59375 25.816406 -0.179688 24.140625 0.171875 C 22.472656 0.523438 20.65625 0.703125 18.6875 0.703125 C 16.382812 0.703125 14.328125 0.328125 12.515625 -0.421875 C 10.703125 -1.171875 9.265625 -2.472656 8.203125 -4.328125 C 7.148438 -6.191406 6.625 -8.769531 6.625 -12.0625 L 6.625 -30.59375 L 1.625 -30.59375 L 1.625 -35.03125 L 7.40625 -38.5625 L 10.4375 -46.671875 L 17.125 -46.671875 L 17.125 -38.5 L 27.921875 -38.5 L 27.921875 -30.59375 L 17.125 -30.59375 L 17.125 -12.0625 C 17.125 -10.601562 17.546875 -9.507812 18.390625 -8.78125 C 19.242188 -8.050781 20.351562 -7.6875 21.71875 -7.6875 Z M 21.71875 -7.6875 "/>
</g>
<g id="glyph-5-8">
<path d="M 16 -42.65625 C 16 -40.769531 15.941406 -38.957031 15.828125 -37.21875 C 15.710938 -35.476562 15.609375 -34.257812 15.515625 -33.5625 L 16.078125 -33.5625 C 17.296875 -35.53125 18.867188 -36.960938 20.796875 -37.859375 C 22.722656 -38.753906 24.863281 -39.203125 27.21875 -39.203125 C 31.394531 -39.203125 34.738281 -38.082031 37.25 -35.84375 C 39.769531 -33.613281 41.03125 -30.03125 41.03125 -25.09375 L 41.03125 0 L 30.53125 0 L 30.53125 -22.484375 C 30.53125 -28.035156 28.460938 -30.8125 24.328125 -30.8125 C 21.171875 -30.8125 18.992188 -29.71875 17.796875 -27.53125 C 16.597656 -25.34375 16 -22.207031 16 -18.125 L 16 0 L 5.5 0 L 5.5 -53.578125 L 16 -53.578125 Z M 16 -42.65625 "/>
</g>
<g id="glyph-5-9">
<path d="M 27 -39.203125 C 27.519531 -39.203125 28.128906 -39.175781 28.828125 -39.125 C 29.535156 -39.082031 30.101562 -39.015625 30.53125 -38.921875 L 29.75 -29.046875 C 29.414062 -29.140625 28.929688 -29.222656 28.296875 -29.296875 C 27.671875 -29.367188 27.125 -29.40625 26.65625 -29.40625 C 24.863281 -29.40625 23.144531 -29.085938 21.5 -28.453125 C 19.851562 -27.816406 18.523438 -26.789062 17.515625 -25.375 C 16.503906 -23.96875 16 -22.039062 16 -19.59375 L 16 0 L 5.5 0 L 5.5 -38.5 L 13.46875 -38.5 L 15.015625 -32 L 15.515625 -32 C 16.640625 -33.976562 18.1875 -35.671875 20.15625 -37.078125 C 22.132812 -38.492188 24.414062 -39.203125 27 -39.203125 Z M 27 -39.203125 "/>
</g>
<g id="glyph-5-10">
<path d="M 50.6875 -39.203125 C 55.0625 -39.203125 58.363281 -38.082031 60.59375 -35.84375 C 62.820312 -33.613281 63.9375 -30.03125 63.9375 -25.09375 L 63.9375 0 L 53.4375 0 L 53.4375 -22.484375 C 53.4375 -28.035156 51.507812 -30.8125 47.65625 -30.8125 C 44.882812 -30.8125 42.910156 -29.820312 41.734375 -27.84375 C 40.554688 -25.875 39.96875 -23.03125 39.96875 -19.3125 L 39.96875 0 L 29.46875 0 L 29.46875 -22.484375 C 29.46875 -28.035156 27.539062 -30.8125 23.6875 -30.8125 C 20.769531 -30.8125 18.757812 -29.71875 17.65625 -27.53125 C 16.550781 -25.34375 16 -22.207031 16 -18.125 L 16 0 L 5.5 0 L 5.5 -38.5 L 13.53125 -38.5 L 14.953125 -33.5625 L 15.515625 -33.5625 C 16.679688 -35.53125 18.285156 -36.960938 20.328125 -37.859375 C 22.378906 -38.753906 24.507812 -39.203125 26.71875 -39.203125 C 29.539062 -39.203125 31.9375 -38.742188 33.90625 -37.828125 C 35.882812 -36.910156 37.390625 -35.488281 38.421875 -33.5625 L 39.34375 -33.5625 C 40.507812 -35.53125 42.140625 -36.960938 44.234375 -37.859375 C 46.328125 -38.753906 48.476562 -39.203125 50.6875 -39.203125 Z M 50.6875 -39.203125 "/>
</g>
<g id="glyph-5-11">
<path d="M 40.46875 -19.3125 C 40.46875 -12.925781 38.785156 -7.992188 35.421875 -4.515625 C 32.066406 -1.035156 27.5 0.703125 21.71875 0.703125 C 18.144531 0.703125 14.957031 -0.0703125 12.15625 -1.625 C 9.363281 -3.175781 7.164062 -5.441406 5.5625 -8.421875 C 3.96875 -11.410156 3.171875 -15.039062 3.171875 -19.3125 C 3.171875 -25.707031 4.835938 -30.617188 8.171875 -34.046875 C 11.515625 -37.484375 16.097656 -39.203125 21.921875 -39.203125 C 25.546875 -39.203125 28.742188 -38.425781 31.515625 -36.875 C 34.285156 -35.320312 36.46875 -33.078125 38.0625 -30.140625 C 39.664062 -27.203125 40.46875 -23.59375 40.46875 -19.3125 Z M 13.890625 -19.3125 C 13.890625 -15.507812 14.507812 -12.628906 15.75 -10.671875 C 17 -8.722656 19.035156 -7.75 21.859375 -7.75 C 24.628906 -7.75 26.632812 -8.722656 27.875 -10.671875 C 29.125 -12.628906 29.75 -15.507812 29.75 -19.3125 C 29.75 -23.125 29.125 -25.976562 27.875 -27.875 C 26.632812 -29.78125 24.601562 -30.734375 21.78125 -30.734375 C 19.007812 -30.734375 17 -29.78125 15.75 -27.875 C 14.507812 -25.976562 13.890625 -23.125 13.890625 -19.3125 Z M 13.890625 -19.3125 "/>
</g>
<g id="glyph-5-12">
<path d="M 10.78125 -53.578125 C 12.332031 -53.578125 13.671875 -53.210938 14.796875 -52.484375 C 15.929688 -51.753906 16.5 -50.40625 16.5 -48.4375 C 16.5 -46.507812 15.929688 -45.164062 14.796875 -44.40625 C 13.671875 -43.65625 12.332031 -43.28125 10.78125 -43.28125 C 9.1875 -43.28125 7.835938 -43.65625 6.734375 -44.40625 C 5.628906 -45.164062 5.078125 -46.507812 5.078125 -48.4375 C 5.078125 -50.40625 5.628906 -51.753906 6.734375 -52.484375 C 7.835938 -53.210938 9.1875 -53.578125 10.78125 -53.578125 Z M 16 -38.5 L 16 0 L 5.5 0 L 5.5 -38.5 Z M 16 -38.5 "/>
</g>
<g id="glyph-5-13">
<path d="M 16 0 L 5.5 0 L 5.5 -53.578125 L 16 -53.578125 Z M 16 0 "/>
</g>
<g id="glyph-5-14">
<path d="M 21.15625 0.703125 C 15.414062 0.703125 10.984375 -0.878906 7.859375 -4.046875 C 4.734375 -7.222656 3.171875 -12.21875 3.171875 -19.03125 C 3.171875 -23.726562 3.96875 -27.554688 5.5625 -30.515625 C 7.164062 -33.484375 9.390625 -35.671875 12.234375 -37.078125 C 15.078125 -38.492188 18.351562 -39.203125 22.0625 -39.203125 C 24.695312 -39.203125 26.988281 -38.941406 28.9375 -38.421875 C 30.882812 -37.898438 32.585938 -37.289062 34.046875 -36.59375 L 30.953125 -28.484375 C 29.304688 -29.140625 27.765625 -29.675781 26.328125 -30.09375 C 24.898438 -30.519531 23.476562 -30.734375 22.0625 -30.734375 C 16.613281 -30.734375 13.890625 -26.859375 13.890625 -19.109375 C 13.890625 -15.253906 14.601562 -12.410156 16.03125 -10.578125 C 17.46875 -8.742188 19.476562 -7.828125 22.0625 -7.828125 C 24.269531 -7.828125 26.21875 -8.117188 27.90625 -8.703125 C 29.601562 -9.296875 31.253906 -10.109375 32.859375 -11.140625 L 32.859375 -2.1875 C 31.253906 -1.15625 29.570312 -0.414062 27.8125 0.03125 C 26.050781 0.476562 23.832031 0.703125 21.15625 0.703125 Z M 21.15625 0.703125 "/>
</g>
<g id="glyph-5-15">
<path d="M 17.984375 -39.203125 C 22.722656 -39.203125 26.429688 -37.320312 29.109375 -33.5625 L 29.40625 -33.5625 L 30.25 -38.5 L 39.125 -38.5 L 39.125 0.078125 C 39.125 5.566406 37.503906 9.742188 34.265625 12.609375 C 31.023438 15.484375 26.226562 16.921875 19.875 16.921875 C 17.15625 16.921875 14.628906 16.753906 12.296875 16.421875 C 9.972656 16.097656 7.707031 15.507812 5.5 14.65625 L 5.5 6.28125 C 10.25 8.25 15.253906 9.234375 20.515625 9.234375 C 25.921875 9.234375 28.625 6.320312 28.625 0.5 L 28.625 -0.28125 C 28.625 -1.082031 28.65625 -1.90625 28.71875 -2.75 C 28.789062 -3.59375 28.851562 -4.34375 28.90625 -5 L 28.625 -5 C 27.3125 -2.976562 25.738281 -1.519531 23.90625 -0.625 C 22.070312 0.257812 20.003906 0.703125 17.703125 0.703125 C 13.140625 0.703125 9.578125 -1.046875 7.015625 -4.546875 C 4.453125 -8.046875 3.171875 -12.921875 3.171875 -19.171875 C 3.171875 -25.472656 4.484375 -30.382812 7.109375 -33.90625 C 9.742188 -37.4375 13.367188 -39.203125 17.984375 -39.203125 Z M 21.296875 -30.671875 C 16.359375 -30.671875 13.890625 -26.789062 13.890625 -19.03125 C 13.890625 -11.375 16.40625 -7.546875 21.4375 -7.546875 C 24.113281 -7.546875 26.097656 -8.304688 27.390625 -9.828125 C 28.679688 -11.359375 29.328125 -14.03125 29.328125 -17.84375 L 29.328125 -19.109375 C 29.328125 -23.242188 28.691406 -26.203125 27.421875 -27.984375 C 26.148438 -29.773438 24.109375 -30.671875 21.296875 -30.671875 Z M 21.296875 -30.671875 "/>
</g>
<g id="glyph-5-16">
<path d="M 2.46875 -21.359375 C 2.46875 -24.273438 2.675781 -27.140625 3.09375 -29.953125 C 3.519531 -32.773438 4.257812 -35.441406 5.3125 -37.953125 C 6.375 -40.472656 7.859375 -42.707031 9.765625 -44.65625 C 11.671875 -46.613281 14.09375 -48.144531 17.03125 -49.25 C 19.96875 -50.351562 23.523438 -50.90625 27.703125 -50.90625 C 28.691406 -50.90625 29.84375 -50.867188 31.15625 -50.796875 C 32.476562 -50.722656 33.582031 -50.59375 34.46875 -50.40625 L 34.46875 -41.875 C 33.582031 -42.113281 32.609375 -42.289062 31.546875 -42.40625 C 30.492188 -42.519531 29.445312 -42.578125 28.40625 -42.578125 C 24.226562 -42.578125 21 -41.921875 18.71875 -40.609375 C 16.4375 -39.296875 14.828125 -37.453125 13.890625 -35.078125 C 12.953125 -32.703125 12.410156 -29.960938 12.265625 -26.859375 L 12.6875 -26.859375 C 13.625 -28.503906 14.972656 -29.890625 16.734375 -31.015625 C 18.503906 -32.148438 20.800781 -32.71875 23.625 -32.71875 C 28.039062 -32.71875 31.539062 -31.328125 34.125 -28.546875 C 36.707031 -25.773438 38 -21.851562 38 -16.78125 C 38 -11.320312 36.457031 -7.039062 33.375 -3.9375 C 30.300781 -0.84375 26.132812 0.703125 20.875 0.703125 C 17.4375 0.703125 14.332031 -0.0820312 11.5625 -1.65625 C 8.789062 -3.226562 6.582031 -5.644531 4.9375 -8.90625 C 3.289062 -12.175781 2.46875 -16.328125 2.46875 -21.359375 Z M 20.65625 -7.828125 C 22.726562 -7.828125 24.421875 -8.539062 25.734375 -9.96875 C 27.046875 -11.40625 27.703125 -13.628906 27.703125 -16.640625 C 27.703125 -19.078125 27.140625 -21 26.015625 -22.40625 C 24.890625 -23.820312 23.175781 -24.53125 20.875 -24.53125 C 19.320312 -24.53125 17.957031 -24.1875 16.78125 -23.5 C 15.601562 -22.820312 14.6875 -21.941406 14.03125 -20.859375 C 13.375 -19.785156 13.046875 -18.679688 13.046875 -17.546875 C 13.046875 -16.003906 13.328125 -14.488281 13.890625 -13 C 14.453125 -11.519531 15.304688 -10.285156 16.453125 -9.296875 C 17.609375 -8.316406 19.007812 -7.828125 20.65625 -7.828125 Z M 20.65625 -7.828125 "/>
</g>
<g id="glyph-5-17">
<path d="M 35.328125 0 L 6.34375 0 L 6.34375 -50.34375 L 35.328125 -50.34375 L 35.328125 -41.59375 L 16.984375 -41.59375 L 16.984375 -30.53125 L 34.046875 -30.53125 L 34.046875 -21.78125 L 16.984375 -21.78125 L 16.984375 -8.8125 L 35.328125 -8.8125 Z M 35.328125 0 "/>
</g>
</g>
<clipPath id="clip-0">
<path clip-rule="nonzero" d="M 225.339844 191.789062 L 2111.1875 191.789062 L 2111.1875 1809.742188 L 225.339844 1809.742188 Z M 225.339844 191.789062 "/>
</clipPath>
</defs>
<rect x="-216" y="-216" width="2592" height="2592" fill="rgb(100%, 100%, 100%)" fill-opacity="1"/>
<path fill-rule="nonzero" fill="rgb(97.254902%, 46.27451%, 42.745098%)" fill-opacity="0.85098" stroke-width="5.010737" stroke-linecap="round" stroke-linejoin="round" stroke="rgb(97.254902%, 46.27451%, 42.745098%)" stroke-opacity="0.85098" stroke-miterlimit="10" d="M 355.234375 1609.542969 C 355.234375 1615.769531 350.191406 1620.816406 343.964844 1620.816406 C 337.742188 1620.816406 332.695312 1615.769531 332.695312 1609.542969 C 332.695312 1603.320312 337.742188 1598.273438 343.964844 1598.273438 C 350.191406 1598.273438 355.234375 1603.320312 355.234375 1609.542969 "/>
<path fill-rule="nonzero" fill="rgb(97.254902%, 46.27451%, 42.745098%)" fill-opacity="0.85098" stroke-width="5.010737" stroke-linecap="round" stroke-linejoin="round" stroke="rgb(97.254902%, 46.27451%, 42.745098%)" stroke-opacity="0.85098" stroke-miterlimit="10" d="M 388.640625 1706.152344 C 388.640625 1712.375 383.59375 1717.421875 377.371094 1717.421875 C 371.144531 1717.421875 366.101562 1712.375 366.101562 1706.152344 C 366.101562 1699.925781 371.144531 1694.878906 377.371094 1694.878906 C 383.59375 1694.878906 388.640625 1699.925781 388.640625 1706.152344 "/>
<path fill-rule="nonzero" fill="rgb(97.254902%, 46.27451%, 42.745098%)" fill-opacity="0.85098" stroke-width="5.010737" stroke-linecap="round" stroke-linejoin="round" stroke="rgb(97.254902%, 46.27451%, 42.745098%)" stroke-opacity="0.85098" stroke-miterlimit="10" d="M 355.234375 1614.066406 C 355.234375 1620.292969 350.191406 1625.335938 343.964844 1625.335938 C 337.742188 1625.335938 332.695312 1620.292969 332.695312 1614.066406 C 332.695312 1607.84375 337.742188 1602.796875 343.964844 1602.796875 C 350.191406 1602.796875 355.234375 1607.84375 355.234375 1614.066406 "/>
<path fill-rule="nonzero" fill="rgb(97.254902%, 46.27451%, 42.745098%)" fill-opacity="0.85098" stroke-width="5.010737" stroke-linecap="round" stroke-linejoin="round" stroke="rgb(97.254902%, 46.27451%, 42.745098%)" stroke-opacity="0.85098" stroke-miterlimit="10" d="M 359.179688 1617.445312 C 359.179688 1623.667969 354.132812 1628.714844 347.90625 1628.714844 C 341.683594 1628.714844 336.636719 1623.667969 336.636719 1617.445312 C 336.636719 1611.21875 341.683594 1606.175781 347.90625 1606.175781 C 354.132812 1606.175781 359.179688 1611.21875 359.179688 1617.445312 "/>
<path fill-rule="nonzero" fill="rgb(97.254902%, 46.27451%, 42.745098%)" fill-opacity="0.85098" stroke-width="5.010737" stroke-linecap="round" stroke-linejoin="round" stroke="rgb(97.254902%, 46.27451%, 42.745098%)" stroke-opacity="0.85098" stroke-miterlimit="10" d="M 356.050781 1516.136719 C 356.050781 1522.359375 351.003906 1527.40625 344.78125 1527.40625 C 338.554688 1527.40625 333.507812 1522.359375 333.507812 1516.136719 C 333.507812 1509.914062 338.554688 1504.867188 344.78125 1504.867188 C 351.003906 1504.867188 356.050781 1509.914062 356.050781 1516.136719 "/>
<path fill-rule="nonzero" fill="rgb(97.254902%, 46.27451%, 42.745098%)" fill-opacity="0.85098" stroke-width="5.010737" stroke-linecap="round" stroke-linejoin="round" stroke="rgb(97.254902%, 46.27451%, 42.745098%)" stroke-opacity="0.85098" stroke-miterlimit="10" d="M 386.160156 1706.976562 C 386.160156 1713.203125 381.113281 1718.25 374.890625 1718.25 C 368.664062 1718.25 363.617188 1713.203125 363.617188 1706.976562 C 363.617188 1700.753906 368.664062 1695.707031 374.890625 1695.707031 C 381.113281 1695.707031 386.160156 1700.753906 386.160156 1706.976562 "/>
<path fill-rule="nonzero" fill="rgb(97.254902%, 46.27451%, 42.745098%)" fill-opacity="0.85098" stroke-width="5.010737" stroke-linecap="round" stroke-linejoin="round" stroke="rgb(97.254902%, 46.27451%, 42.745098%)" stroke-opacity="0.85098" stroke-miterlimit="10" d="M 422.34375 1706.976562 C 422.34375 1713.203125 417.296875 1718.25 411.074219 1718.25 C 404.847656 1718.25 399.804688 1713.203125 399.804688 1706.976562 C 399.804688 1700.753906 404.847656 1695.707031 411.074219 1695.707031 C 417.296875 1695.707031 422.34375 1700.753906 422.34375 1706.976562 "/>
<path fill-rule="nonzero" fill="rgb(97.254902%, 46.27451%, 42.745098%)" fill-opacity="0.85098" stroke-width="5.010737" stroke-linecap="round" stroke-linejoin="round" stroke="rgb(97.254902%, 46.27451%, 42.745098%)" stroke-opacity="0.85098" stroke-miterlimit="10" d="M 357.058594 1610.75 C 357.058594 1616.972656 352.015625 1622.019531 345.789062 1622.019531 C 339.566406 1622.019531 334.519531 1616.972656 334.519531 1610.75 C 334.519531 1604.523438 339.566406 1599.476562 345.789062 1599.476562 C 352.015625 1599.476562 357.058594 1604.523438 357.058594 1610.75 "/>
<path fill-rule="nonzero" fill="rgb(97.254902%, 46.27451%, 42.745098%)" fill-opacity="0.85098" stroke-width="5.010737" stroke-linecap="round" stroke-linejoin="round" stroke="rgb(97.254902%, 46.27451%, 42.745098%)" stroke-opacity="0.85098" stroke-miterlimit="10" d="M 389.609375 1705.238281 C 389.609375 1711.460938 384.566406 1716.507812 378.339844 1716.507812 C 372.117188 1716.507812 367.070312 1711.460938 367.070312 1705.238281 C 367.070312 1699.011719 372.117188 1693.964844 378.339844 1693.964844 C 384.566406 1693.964844 389.609375 1699.011719 389.609375 1705.238281 "/>
<path fill-rule="nonzero" fill="rgb(97.254902%, 46.27451%, 42.745098%)" fill-opacity="0.85098" stroke-width="5.010737" stroke-linecap="round" stroke-linejoin="round" stroke="rgb(97.254902%, 46.27451%, 42.745098%)" stroke-opacity="0.85098" stroke-miterlimit="10" d="M 387.433594 1611.492188 C 387.433594 1617.714844 382.386719 1622.761719 376.164062 1622.761719 C 369.9375 1622.761719 364.890625 1617.714844 364.890625 1611.492188 C 364.890625 1605.265625 369.9375 1600.21875 376.164062 1600.21875 C 382.386719 1600.21875 387.433594 1605.265625 387.433594 1611.492188 "/>
<g clip-path="url(#clip-0)">
<path fill="none" stroke-width="4.742126" stroke-linecap="butt" stroke-linejoin="round" stroke="rgb(60%, 60%, 60%)" stroke-opacity="1" stroke-dasharray="4 4" stroke-miterlimit="10" d="M -1659.511719 3425.699219 L 3995.035156 -1425.164062 "/>
</g>
<path fill="none" stroke-width="4.742126" stroke-linecap="butt" stroke-linejoin="round" stroke="rgb(0%, 0%, 0%)" stroke-opacity="1" stroke-miterlimit="10" d="M 225.339844 1808.746094 L 225.339844 191.789062 "/>
<g fill="rgb(0%, 0%, 0%)" fill-opacity="1">
<use xlink:href="#glyph-0-0" x="155.77145" y="1725.006369"/>
</g>
<g fill="rgb(0%, 0%, 0%)" fill-opacity="1">
<use xlink:href="#glyph-0-1" x="126.880825" y="1371.650989"/>
<use xlink:href="#glyph-0-2" x="155.77145" y="1371.650989"/>
</g>
<g fill="rgb(0%, 0%, 0%)" fill-opacity="1">
<use xlink:href="#glyph-0-2" x="126.880825" y="1018.29561"/>
<use xlink:href="#glyph-0-0" x="155.77145" y="1018.29561"/>
</g>
<g fill="rgb(0%, 0%, 0%)" fill-opacity="1">
<use xlink:href="#glyph-0-3" x="126.880825" y="664.94023"/>
<use xlink:href="#glyph-0-2" x="155.77145" y="664.94023"/>
</g>
<g fill="rgb(0%, 0%, 0%)" fill-opacity="1">
<use xlink:href="#glyph-0-4" x="97.9902" y="311.584851"/>
<use xlink:href="#glyph-0-0" x="126.880825" y="311.584851"/>
<use xlink:href="#glyph-0-0" x="155.77145" y="311.584851"/>
</g>
<path fill="none" stroke-width="3.556594" stroke-linecap="butt" stroke-linejoin="round" stroke="rgb(0%, 0%, 0%)" stroke-opacity="1" stroke-miterlimit="10" d="M 210.808594 1706.976562 L 225.339844 1706.976562 "/>
<path fill="none" stroke-width="3.556594" stroke-linecap="butt" stroke-linejoin="round" stroke="rgb(0%, 0%, 0%)" stroke-opacity="1" stroke-miterlimit="10" d="M 210.808594 1353.621094 L 225.339844 1353.621094 "/>
<path fill="none" stroke-width="3.556594" stroke-linecap="butt" stroke-linejoin="round" stroke="rgb(0%, 0%, 0%)" stroke-opacity="1" stroke-miterlimit="10" d="M 210.808594 1000.265625 L 225.339844 1000.265625 "/>
<path fill="none" stroke-width="3.556594" stroke-linecap="butt" stroke-linejoin="round" stroke="rgb(0%, 0%, 0%)" stroke-opacity="1" stroke-miterlimit="10" d="M 210.808594 646.910156 L 225.339844 646.910156 "/>
<path fill="none" stroke-width="3.556594" stroke-linecap="butt" stroke-linejoin="round" stroke="rgb(0%, 0%, 0%)" stroke-opacity="1" stroke-miterlimit="10" d="M 210.808594 293.554688 L 225.339844 293.554688 "/>
<path fill="none" stroke-width="4.742126" stroke-linecap="butt" stroke-linejoin="round" stroke="rgb(0%, 0%, 0%)" stroke-opacity="1" stroke-miterlimit="10" d="M 225.339844 1808.746094 L 2110.1875 1808.746094 "/>
<path fill="none" stroke-width="3.556594" stroke-linecap="butt" stroke-linejoin="round" stroke="rgb(0%, 0%, 0%)" stroke-opacity="1" stroke-miterlimit="10" d="M 343.964844 1823.273438 L 343.964844 1808.746094 "/>
<path fill="none" stroke-width="3.556594" stroke-linecap="butt" stroke-linejoin="round" stroke="rgb(0%, 0%, 0%)" stroke-opacity="1" stroke-miterlimit="10" d="M 755.863281 1823.273438 L 755.863281 1808.746094 "/>
<path fill="none" stroke-width="3.556594" stroke-linecap="butt" stroke-linejoin="round" stroke="rgb(0%, 0%, 0%)" stroke-opacity="1" stroke-miterlimit="10" d="M 1167.761719 1823.273438 L 1167.761719 1808.746094 "/>
<path fill="none" stroke-width="3.556594" stroke-linecap="butt" stroke-linejoin="round" stroke="rgb(0%, 0%, 0%)" stroke-opacity="1" stroke-miterlimit="10" d="M 1579.660156 1823.273438 L 1579.660156 1808.746094 "/>
<path fill="none" stroke-width="3.556594" stroke-linecap="butt" stroke-linejoin="round" stroke="rgb(0%, 0%, 0%)" stroke-opacity="1" stroke-miterlimit="10" d="M 1991.558594 1823.273438 L 1991.558594 1808.746094 "/>
<g fill="rgb(0%, 0%, 0%)" fill-opacity="1">
<use xlink:href="#glyph-0-0" x="329.522064" y="1885.481998"/>
</g>
<g fill="rgb(0%, 0%, 0%)" fill-opacity="1">
<use xlink:href="#glyph-0-1" x="726.975477" y="1885.481998"/>
<use xlink:href="#glyph-0-2" x="755.866102" y="1885.481998"/>
</g>
<g fill="rgb(0%, 0%, 0%)" fill-opacity="1">
<use xlink:href="#glyph-0-2" x="1138.874203" y="1885.481998"/>
<use xlink:href="#glyph-0-0" x="1167.764828" y="1885.481998"/>
</g>
<g fill="rgb(0%, 0%, 0%)" fill-opacity="1">
<use xlink:href="#glyph-0-3" x="1550.772928" y="1885.481998"/>
<use xlink:href="#glyph-0-2" x="1579.663553" y="1885.481998"/>
</g>
<g fill="rgb(0%, 0%, 0%)" fill-opacity="1">
<use xlink:href="#glyph-0-4" x="1948.226342" y="1885.481998"/>
<use xlink:href="#glyph-0-0" x="1977.116967" y="1885.481998"/>
<use xlink:href="#glyph-0-0" x="2006.007592" y="1885.481998"/>
</g>
<g fill="rgb(0%, 0%, 0%)" fill-opacity="1">
<use xlink:href="#glyph-1-0" x="1077.319078" y="1948.202998"/>
<use xlink:href="#glyph-1-1" x="1103.272203" y="1948.202998"/>
<use xlink:href="#glyph-1-2" x="1134.537828" y="1948.202998"/>
<use xlink:href="#glyph-1-3" x="1167.709703" y="1948.202998"/>
<use xlink:href="#glyph-1-4" x="1189.631578" y="1948.202998"/>
<use xlink:href="#glyph-1-1" x="1211.537828" y="1948.202998"/>
<use xlink:href="#glyph-1-5" x="1242.803453" y="1948.202998"/>
</g>
<g fill="rgb(0%, 0%, 0%)" fill-opacity="1">
<use xlink:href="#glyph-2-0" x="73.7502" y="1121.39311"/>
<use xlink:href="#glyph-2-1" x="73.7502" y="1089.42436"/>
<use xlink:href="#glyph-2-2" x="73.7502" y="1059.58061"/>
<use xlink:href="#glyph-2-1" x="73.7502" y="1009.98686"/>
<use xlink:href="#glyph-2-3" x="73.7502" y="980.14311"/>
<use xlink:href="#glyph-2-4" x="73.7502" y="946.971235"/>
<use xlink:href="#glyph-2-5" x="73.7502" y="925.04936"/>
<use xlink:href="#glyph-2-6" x="73.7502" y="909.64311"/>
</g>
<g fill="rgb(0%, 0%, 0%)" fill-opacity="1">
<use xlink:href="#glyph-3-0" x="992.734479" y="2075.069099"/>
<use xlink:href="#glyph-3-1" x="1021.968854" y="2075.069099"/>
<use xlink:href="#glyph-3-2" x="1037.781354" y="2075.069099"/>
<use xlink:href="#glyph-3-3" x="1061.359479" y="2075.069099"/>
<use xlink:href="#glyph-3-4" x="1090.046979" y="2075.069099"/>
<use xlink:href="#glyph-3-5" x="1103.078229" y="2075.069099"/>
<use xlink:href="#glyph-3-6" x="1132.312604" y="2075.069099"/>
</g>
<path fill-rule="nonzero" fill="rgb(97.254902%, 46.27451%, 42.745098%)" fill-opacity="0.85098" stroke-width="5.010737" stroke-linecap="round" stroke-linejoin="round" stroke="rgb(97.254902%, 46.27451%, 42.745098%)" stroke-opacity="0.85098" stroke-miterlimit="10" d="M 1209.652344 2057.039062 C 1209.652344 2063.265625 1204.605469 2068.3125 1198.378906 2068.3125 C 1192.15625 2068.3125 1187.109375 2063.265625 1187.109375 2057.039062 C 1187.109375 2050.816406 1192.15625 2045.769531 1198.378906 2045.769531 C 1204.605469 2045.769531 1209.652344 2050.816406 1209.652344 2057.039062 "/>
<g fill="rgb(0%, 0%, 0%)" fill-opacity="1">
<use xlink:href="#glyph-4-0" x="1239.249552" y="2071.499099"/>
<use xlink:href="#glyph-4-1" x="1262.421427" y="2071.499099"/>
<use xlink:href="#glyph-4-2" x="1285.593302" y="2071.499099"/>
<use xlink:href="#glyph-4-1" x="1296.452677" y="2071.499099"/>
<use xlink:href="#glyph-4-3" x="1319.624552" y="2071.499099"/>
</g>
<g fill="rgb(0%, 0%, 0%)" fill-opacity="1">
<use xlink:href="#glyph-5-0" x="575.749078" y="108.6102"/>
<use xlink:href="#glyph-5-1" x="627.920953" y="108.6102"/>
<use xlink:href="#glyph-5-1" x="669.592828" y="108.6102"/>
<use xlink:href="#glyph-5-2" x="711.264703" y="108.6102"/>
<use xlink:href="#glyph-5-3" x="755.889703" y="108.6102"/>
<use xlink:href="#glyph-5-4" x="778.592828" y="108.6102"/>
<use xlink:href="#glyph-5-1" x="813.624078" y="108.6102"/>
<use xlink:href="#glyph-5-5" x="855.295953" y="108.6102"/>
<use xlink:href="#glyph-5-6" x="897.874078" y="108.6102"/>
<use xlink:href="#glyph-5-7" x="916.202203" y="108.6102"/>
<use xlink:href="#glyph-5-8" x="946.795953" y="108.6102"/>
<use xlink:href="#glyph-5-1" x="993.108453" y="108.6102"/>
<use xlink:href="#glyph-5-9" x="1034.780328" y="108.6102"/>
<use xlink:href="#glyph-5-10" x="1066.780328" y="108.6102"/>
<use xlink:href="#glyph-5-11" x="1136.014703" y="108.6102"/>
<use xlink:href="#glyph-5-2" x="1179.655328" y="108.6102"/>
<use xlink:href="#glyph-5-8" x="1224.280328" y="108.6102"/>
<use xlink:href="#glyph-5-12" x="1270.592828" y="108.6102"/>
<use xlink:href="#glyph-5-13" x="1292.092828" y="108.6102"/>
<use xlink:href="#glyph-5-12" x="1313.592828" y="108.6102"/>
<use xlink:href="#glyph-5-14" x="1335.092828" y="108.6102"/>
<use xlink:href="#glyph-5-6" x="1371.327203" y="108.6102"/>
<use xlink:href="#glyph-5-2" x="1389.655328" y="108.6102"/>
<use xlink:href="#glyph-5-8" x="1434.280328" y="108.6102"/>
<use xlink:href="#glyph-5-5" x="1480.592828" y="108.6102"/>
<use xlink:href="#glyph-5-15" x="1523.170953" y="108.6102"/>
<use xlink:href="#glyph-5-1" x="1567.795953" y="108.6102"/>
<use xlink:href="#glyph-5-6" x="1609.467828" y="108.6102"/>
<use xlink:href="#glyph-5-0" x="1627.795953" y="108.6102"/>
<use xlink:href="#glyph-5-16" x="1679.967828" y="108.6102"/>
<use xlink:href="#glyph-5-17" x="1720.295953" y="108.6102"/>
</g>
</svg>
